<svg width="22" height="22" viewBox="0 0 22 22" fill="none" xmlns="http://www.w3.org/2000/svg">
<circle cx="13.5" cy="13.5" r="5.5" fill="#FE6AD2" fill-opacity="0.3"/>
<path d="M16.833 8.5C16.833 8.21123 16.1127 7.896 14.6719 7.55371L14.0098 7.40527C12.91 7.17191 12.097 6.9667 11.5703 6.79004C10.4305 6.41123 9.75963 5.71671 9.55859 4.70703C9.44417 4.13924 9.49913 3.4883 9.72461 2.75488C7.96472 3.00493 6.42607 3.78883 5.1084 5.10645L4.84961 5.37598C4.26234 6.01099 3.79336 6.69457 3.44336 7.42676C7.24851 7.67795 9.23312 9.35107 9.39551 12.4463C9.47772 14.0018 10.2441 15.1293 11.6953 15.8281C12.6165 16.2704 14.2951 16.6777 16.7314 17.0498L16.8936 16.8926C17.2336 16.5516 17.5387 16.1962 17.8086 15.8262V15.8252C16.012 15.2262 15.0304 14.3421 14.8643 13.1729L14.8418 12.9346C14.8108 12.2676 15.1328 11.3838 15.8076 10.2822L16.1182 9.79688C16.5351 9.17088 16.77 8.7616 16.8223 8.56934L16.833 8.5ZM20.9873 11.5146C20.7194 16.7981 16.35 21 11 21V19.7998C12.9043 19.7998 14.6653 19.1923 16.1055 18.1641C13.891 17.8087 12.2071 17.4053 11.1758 16.9102L11.1748 16.9092C10.2939 16.485 9.56202 15.9011 9.04004 15.1338C8.58211 14.4605 8.31925 13.6952 8.22656 12.8682L8.19727 12.5098C8.12985 11.2236 7.70129 10.3687 7.01172 9.78711C6.28807 9.17686 5.12592 8.74032 3.36426 8.62402L2.54199 8.56934C2.32049 9.34151 2.2002 10.1566 2.2002 11C2.2002 15.8599 6.13992 19.7998 11 19.7998V21L10.4854 20.9873C5.37214 20.7281 1.27191 16.6277 1.0127 11.5146L1 11C1 5.47716 5.47716 1 11 1L11.5146 1.0127C16.7981 1.28056 21 5.64977 21 11L20.9873 11.5146ZM18.0332 8.5C18.0332 8.78747 17.9364 9.02772 17.8984 9.12012C17.8443 9.252 17.7759 9.38732 17.7051 9.51562C17.5622 9.77465 17.3625 10.0936 17.1172 10.4619H17.1162C16.2457 11.768 16.0243 12.5308 16.04 12.8779L16.0488 12.9805C16.1169 13.4988 16.5454 14.1391 18.1875 14.6865L18.8799 14.917C19.4676 13.7371 19.7998 12.4076 19.7998 11C19.7998 6.18984 15.9404 2.28291 11.1494 2.20312L10.8721 3.10742C10.71 3.63453 10.6774 4.03861 10.7148 4.34473L10.7344 4.46973L10.7354 4.47266L10.7832 4.6582C10.9 5.01911 11.1506 5.3174 11.667 5.54395L11.9482 5.65137L11.9512 5.65234L12.3525 5.77539C12.8102 5.9055 13.4408 6.05787 14.2588 6.23145H14.2598L14.9443 6.38477C15.5947 6.53912 16.1399 6.69685 16.5615 6.86035C16.8352 6.9665 17.1259 7.10071 17.3691 7.28027C17.5646 7.42462 18.0332 7.82172 18.0332 8.5Z" fill="#353535"/>
</svg>
