<svg width="166" height="40" viewBox="0 0 166 40" fill="none" xmlns="http://www.w3.org/2000/svg">
<path d="M27.2753 8.96947C29.3115 20.5079 25.4653 23.9339 22.912 26.8105C25.9372 13.7788 17.5144 9.09876 12.9249 8.3877C10.2423 8.12914 4.70252 9.10522 4.0044 15.0781C3.13174 22.5441 9.82212 24.6773 14.4763 26.8105C18.1996 28.517 20.7465 31.1414 21.5545 32.2403C28.4388 29.1376 35.517 24.3864 36.0988 17.3082C36.5642 11.6456 31.3154 9.00179 28.6327 8.3877L27.2753 8.96947Z" fill="url(#paint0_linear_17_12)"/>
<path d="M24.6344 2.69137C25.1564 2.57161 25.6765 2.8976 25.7963 3.41953C25.916 3.94147 25.5901 4.46161 25.0681 4.58137C24.3758 4.74023 23.6425 5.46661 22.9808 6.63973C22.3496 7.75877 21.9192 9.04434 21.7222 9.87242C21.5982 10.3934 21.0754 10.7152 20.5545 10.5913C20.0335 10.4674 19.7116 9.94456 19.8356 9.4236C20.0644 8.46158 20.5524 6.99793 21.2919 5.68696C22.0009 4.43005 23.091 3.04551 24.6344 2.69137Z" fill="#EE3771"/>
<path d="M21.26 9.22446C23.5535 7.25003 27.2141 6.63766 30.4622 7.52668C34.0936 8.5207 37.3519 11.4177 37.9578 16.5483C38.5668 21.706 35.6488 26.2182 31.967 29.6802C28.2654 33.1608 23.615 35.7555 20.3048 37.1128L19.2932 37.5277L19.0023 36.4736C18.8527 35.9317 18.6617 35.5589 18.3499 35.1989C18.0168 34.8144 17.5138 34.4075 16.6699 33.8509C15.8275 33.2954 14.7158 32.635 13.1957 31.7229C11.6844 30.8159 9.79549 29.6753 7.43122 28.1764C-2.76121 21.7143 1.98406 7.16236 12.4946 7.16232C15.1583 7.16232 16.9871 7.42759 18.4345 7.88707C19.5786 8.25025 20.4506 8.72556 21.26 9.22446ZM29.9503 9.39718C27.3796 8.69353 24.6749 9.14954 22.9342 10.3768C25.5589 12.5334 26.4453 15.4874 26.3871 18.4029C26.3226 21.6282 25.1126 24.8674 23.8112 27.1772C23.5483 27.6437 22.9572 27.8089 22.4906 27.5461C22.0241 27.2832 21.8589 26.6919 22.1217 26.2254C23.3204 24.0978 24.3921 21.174 24.4482 18.3643C24.5027 15.6396 23.6124 13.0861 20.99 11.3493L20.8639 11.2671C19.8665 10.6299 19.0378 10.1132 17.8478 9.73541C16.6515 9.35563 15.0358 9.10156 12.4946 9.10156C4.03344 9.10161 -0.174022 21.0585 8.46958 26.5386C10.8143 28.0252 12.6877 29.1565 14.1936 30.0601C15.6907 30.9585 16.8511 31.6475 17.7376 32.2321C18.6224 32.8156 19.3049 33.3396 19.8157 33.9291C20.0924 34.2485 20.3089 34.5764 20.4834 34.9256C23.5344 33.5583 27.4736 31.2433 30.6385 28.2675C34.1496 24.9659 36.5335 21.0243 36.0318 16.7758C35.5269 12.5001 32.8906 10.202 29.9503 9.39718Z" fill="#EE3771"/>
<ellipse cx="10.9857" cy="12.46" rx="1.26051" ry="1.84228" fill="white"/>
<path d="M52.1074 14.0469C52.1074 13.8008 52.2275 13.6777 52.4678 13.6777H56.4141C57.0645 13.6777 57.7031 13.748 58.3301 13.8887C58.9629 14.0293 59.5371 14.2578 60.0527 14.5742C60.5684 14.8848 60.9785 15.3008 61.2832 15.8223C61.5879 16.3379 61.7402 16.9736 61.7402 17.7295C61.7402 17.9404 61.7227 18.1572 61.6875 18.3799C61.6523 18.5967 61.6025 18.8076 61.5381 19.0127C61.3154 19.7158 60.9521 20.2812 60.4482 20.709C59.9443 21.1309 59.3613 21.4355 58.6992 21.623C58.043 21.8105 57.375 21.9043 56.6953 21.9043H54.4717C54.4014 21.9043 54.3662 21.9395 54.3662 22.0098L54.3398 25.6484C54.3398 25.8828 54.2197 26 53.9795 26H52.459C52.2188 26 52.0986 25.877 52.0986 25.6309C52.0986 25.3145 52.1045 24.998 52.1162 24.6816C52.1279 24.3594 52.1367 24.04 52.1426 23.7236C52.1602 22.3877 52.1689 21.0459 52.1689 19.6982C52.1689 18.4385 52.1602 17.1816 52.1426 15.9277C52.1367 15.6172 52.1279 15.3037 52.1162 14.9873C52.1104 14.6709 52.1074 14.3574 52.1074 14.0469ZM54.375 19.7773H56.7217C57.0615 19.7773 57.4102 19.7334 57.7676 19.6455C58.1309 19.5518 58.4619 19.4053 58.7607 19.2061C59.0596 19.001 59.2764 18.7314 59.4111 18.3975C59.4463 18.3096 59.4785 18.21 59.5078 18.0986C59.5371 17.9873 59.5518 17.8848 59.5518 17.791C59.5518 17.709 59.5371 17.6123 59.5078 17.501C59.4785 17.3838 59.4492 17.2842 59.4199 17.2021C59.2852 16.8682 59.0742 16.5986 58.7871 16.3936C58.5059 16.1885 58.1895 16.0391 57.8379 15.9453C57.4922 15.8457 57.1523 15.7959 56.8184 15.7959H54.3574C54.3633 16.458 54.3662 17.123 54.3662 17.791C54.3721 18.4531 54.375 19.1152 54.375 19.7773ZM66.9873 26.2109C66.1318 26.2109 65.3848 26.041 64.7461 25.7012C64.1133 25.3613 63.6211 24.8779 63.2695 24.251C62.918 23.624 62.7422 22.8799 62.7422 22.0186C62.7422 21.2158 62.9092 20.4951 63.2432 19.8564C63.5771 19.2178 64.0488 18.7139 64.6582 18.3447C65.2676 17.9697 65.9824 17.7822 66.8027 17.7822C67.8164 17.7822 68.6104 18.0664 69.1846 18.6348C69.7646 19.2031 70.1572 19.959 70.3623 20.9023C70.3682 20.9199 70.3711 20.9492 70.3711 20.9902C70.3711 21.0781 70.3477 21.1455 70.3008 21.1924C70.2598 21.2334 70.2041 21.2686 70.1338 21.2979C69.9346 21.3916 69.7236 21.4736 69.501 21.5439C69.2783 21.6143 69.0615 21.6904 68.8506 21.7725C68.2354 22.001 67.6172 22.2266 66.9961 22.4492C66.375 22.666 65.7598 22.8975 65.1504 23.1436C65.1035 23.167 65.0801 23.1963 65.0801 23.2314C65.0801 23.249 65.0859 23.2695 65.0977 23.293C65.332 23.7148 65.6543 24.0283 66.0645 24.2334C66.4746 24.4385 66.9141 24.541 67.3828 24.541C67.752 24.541 68.0947 24.4824 68.4111 24.3652C68.7334 24.248 69.0498 24.1016 69.3604 23.9258C69.4014 23.9023 69.4424 23.8818 69.4834 23.8643C69.5244 23.8467 69.5654 23.8379 69.6064 23.8379C69.6885 23.8379 69.75 23.8643 69.791 23.917C69.8379 23.9639 69.876 24.0195 69.9053 24.084C69.9287 24.125 69.9727 24.2188 70.0371 24.3652C70.1074 24.5059 70.1719 24.6494 70.2305 24.7959C70.2949 24.9365 70.3271 25.0273 70.3271 25.0684C70.3271 25.1328 70.3096 25.1855 70.2744 25.2266C70.2393 25.2676 70.1982 25.3057 70.1514 25.3408C69.7354 25.6279 69.2285 25.8447 68.6309 25.9912C68.0391 26.1377 67.4912 26.2109 66.9873 26.2109ZM64.7812 21.9307C65.373 21.7256 65.9648 21.5205 66.5566 21.3154C67.1484 21.1104 67.7373 20.9053 68.3232 20.7002C68.1768 20.3779 67.9717 20.0967 67.708 19.8564C67.4502 19.6162 67.1309 19.4961 66.75 19.4961C66.3047 19.4961 65.9355 19.6162 65.6426 19.8564C65.3496 20.0967 65.1328 20.4043 64.9922 20.7793C64.8516 21.1484 64.7812 21.5322 64.7812 21.9307ZM74.8975 26.167C74.1357 26.167 73.4971 25.9854 72.9814 25.6221C72.4658 25.2588 72.0762 24.7783 71.8125 24.1807C71.5547 23.5771 71.4258 22.9238 71.4258 22.2207V22.0801C71.4375 21.3418 71.5898 20.6475 71.8828 19.9971C72.1816 19.3467 72.6123 18.8223 73.1748 18.4238C73.7373 18.0195 74.417 17.8174 75.2139 17.8174C75.7061 17.8174 76.1631 17.9111 76.585 18.0986C77.0127 18.2803 77.4111 18.5293 77.7803 18.8457C77.8213 18.8867 77.8564 18.9072 77.8857 18.9072C77.9561 18.9072 77.9883 18.834 77.9824 18.6875C77.9824 18.541 78.0029 18.3945 78.0439 18.248C78.0908 18.1016 78.208 18.0283 78.3955 18.0283H79.6348C79.875 18.0283 79.9951 18.1484 79.9951 18.3887C79.9951 18.6406 79.9922 18.8926 79.9863 19.1445C79.9863 19.3965 79.9863 19.6484 79.9863 19.9004C79.9863 20.5449 79.9893 21.1924 79.9951 21.8428C80.0068 22.4932 80.0156 23.1406 80.0215 23.7852C80.0273 24.0898 80.0332 24.3975 80.0391 24.708C80.0508 25.0127 80.0566 25.3203 80.0566 25.6309C80.0566 25.877 79.9365 26 79.6963 26H78.3164C78.1582 26 78.0557 25.9502 78.0088 25.8506C77.9619 25.7451 77.9414 25.6221 77.9473 25.4814C77.9531 25.3408 77.9531 25.2148 77.9473 25.1035C77.9473 25.0859 77.9443 25.0566 77.9385 25.0156C77.9326 24.9746 77.915 24.9541 77.8857 24.9541C77.8623 24.9541 77.8389 24.9629 77.8154 24.9805C77.7979 24.998 77.7803 25.0127 77.7627 25.0244C77.3525 25.3701 76.9102 25.6484 76.4355 25.8594C75.9609 26.0645 75.4482 26.167 74.8975 26.167ZM75.7939 24.2949C76.21 24.2949 76.5938 24.21 76.9453 24.04C77.3027 23.8643 77.5811 23.5889 77.7803 23.2139C77.792 23.1904 77.8184 23.1318 77.8594 23.0381C77.9062 22.9385 77.9297 22.877 77.9297 22.8535C77.9297 22.6484 77.9268 22.4434 77.9209 22.2383C77.9209 22.0332 77.9209 21.8311 77.9209 21.6318C77.9209 21.5381 77.9238 21.4355 77.9297 21.3242C77.9355 21.207 77.9326 21.1045 77.9209 21.0166C77.915 20.9756 77.8916 20.9141 77.8506 20.832C77.8154 20.75 77.7891 20.6914 77.7715 20.6562C77.5664 20.2871 77.2764 20.0117 76.9014 19.8301C76.5264 19.6484 76.1338 19.5576 75.7236 19.5576C75.29 19.5576 74.9092 19.666 74.5811 19.8828C74.2529 20.0996 73.9951 20.3867 73.8076 20.7441C73.626 21.0957 73.5352 21.4824 73.5352 21.9043C73.5352 22.3262 73.6318 22.7188 73.8252 23.082C74.0186 23.4453 74.2852 23.7383 74.625 23.9609C74.9707 24.1836 75.3604 24.2949 75.7939 24.2949ZM86.9385 23.9785C87.0205 23.9785 87.082 24.0049 87.123 24.0576C87.1699 24.1104 87.208 24.1689 87.2373 24.2334C87.2607 24.2803 87.3076 24.3945 87.3779 24.5762C87.4482 24.7578 87.5127 24.9365 87.5713 25.1123C87.6357 25.2881 87.668 25.3936 87.668 25.4287C87.668 25.5576 87.5654 25.6689 87.3604 25.7627C87.1611 25.8564 86.9209 25.9326 86.6396 25.9912C86.3584 26.0498 86.0918 26.0908 85.8398 26.1143C85.5879 26.1436 85.4092 26.1582 85.3037 26.1582C84.0674 26.1582 83.1035 25.792 82.4121 25.0596C81.7207 24.3271 81.375 23.3516 81.375 22.1328C81.375 21.3184 81.5332 20.5859 81.8496 19.9355C82.1719 19.2852 82.6348 18.7695 83.2383 18.3887C83.8418 18.0078 84.5654 17.8174 85.4092 17.8174C85.7373 17.8174 86.0918 17.8555 86.4727 17.9316C86.8535 18.002 87.1875 18.1162 87.4746 18.2744C87.5332 18.3037 87.5801 18.3389 87.6152 18.3799C87.6562 18.415 87.6768 18.4678 87.6768 18.5381C87.6768 18.5967 87.6621 18.6553 87.6328 18.7139L87.2285 19.7334C87.1641 19.8975 87.0615 19.9795 86.9209 19.9795C86.8623 19.9795 86.7979 19.9648 86.7275 19.9355C86.5342 19.8711 86.3408 19.8184 86.1475 19.7773C85.9541 19.7305 85.7549 19.707 85.5498 19.707C84.8408 19.707 84.3135 19.9297 83.9678 20.375C83.6279 20.8203 83.458 21.374 83.458 22.0361C83.458 22.6748 83.6191 23.2139 83.9414 23.6533C84.2695 24.0869 84.7764 24.3037 85.4619 24.3037C85.6846 24.3037 85.8984 24.2773 86.1035 24.2246C86.3086 24.1719 86.5137 24.1074 86.7188 24.0312C86.7539 24.0195 86.7891 24.0078 86.8242 23.9961C86.8594 23.9844 86.8975 23.9785 86.9385 23.9785ZM89.3379 26C89.0977 26 88.9775 25.877 88.9775 25.6309C88.9775 25.3086 88.9805 24.9893 88.9863 24.6729C88.998 24.3506 89.0068 24.0283 89.0127 23.7061C89.0244 23.0322 89.0332 22.3584 89.0391 21.6846C89.0449 21.0107 89.0479 20.3369 89.0479 19.6631C89.0479 18.9893 89.0449 18.3154 89.0391 17.6416C89.0332 16.9678 89.0244 16.2939 89.0127 15.6201C89.0068 15.2979 88.998 14.9785 88.9863 14.6621C88.9805 14.3398 88.9775 14.0176 88.9775 13.6953C88.9775 13.4492 89.0977 13.3262 89.3379 13.3262H90.6738C90.8145 13.3262 90.9053 13.3555 90.9463 13.4141C90.9932 13.4727 91.0225 13.5635 91.0342 13.6865C91.0459 13.7627 91.0488 13.8447 91.043 13.9326C91.0371 14.0205 91.0371 14.1055 91.043 14.1875L91.0518 15.3652C91.0576 15.9512 91.0605 16.54 91.0605 17.1318C91.0664 17.7178 91.0693 18.3066 91.0693 18.8984C91.0693 18.9102 91.0693 18.9453 91.0693 19.0039C91.0752 19.0566 91.0957 19.083 91.1309 19.083C91.1602 19.083 91.1895 19.0684 91.2188 19.0391C91.248 19.0098 91.2686 18.9863 91.2803 18.9688C91.9893 18.2012 92.8857 17.8174 93.9697 17.8174C94.4326 17.8174 94.8633 17.9111 95.2617 18.0986C95.6602 18.2803 95.9824 18.5469 96.2285 18.8984C96.4805 19.25 96.6064 19.6719 96.6064 20.1641C96.6064 21.0723 96.6152 21.9834 96.6328 22.8975C96.6562 23.8115 96.668 24.7227 96.668 25.6309C96.668 25.877 96.5479 26 96.3076 26H94.9277C94.7871 26 94.6934 25.9707 94.6465 25.9121C94.6055 25.8535 94.5791 25.7627 94.5674 25.6396C94.5439 25.4404 94.5352 25.2002 94.541 24.9189C94.5527 24.6318 94.5557 24.3828 94.5498 24.1719C94.5439 23.627 94.541 23.085 94.541 22.5459C94.541 22.001 94.541 21.4561 94.541 20.9111C94.541 20.4951 94.4238 20.1846 94.1895 19.9795C93.9551 19.7686 93.6387 19.6631 93.2402 19.6631C92.748 19.6631 92.3438 19.8184 92.0273 20.1289C91.7168 20.4336 91.4854 20.8086 91.333 21.2539C91.1807 21.6992 91.1045 22.1328 91.1045 22.5547C91.1045 23.0703 91.1016 23.5859 91.0957 24.1016C91.0898 24.6113 91.084 25.124 91.0781 25.6396C91.0781 25.8799 90.958 26 90.7178 26H89.3379ZM98.6191 14.0469C98.6191 13.8008 98.7393 13.6777 98.9795 13.6777H100.482C100.723 13.6777 100.843 13.7979 100.843 14.0381C100.843 15.0869 100.846 16.1357 100.852 17.1846C100.863 18.2334 100.869 19.2822 100.869 20.3311C100.869 20.8994 100.866 21.4736 100.86 22.0537C100.86 22.6279 100.86 23.2021 100.86 23.7764C100.86 23.8467 100.896 23.8818 100.966 23.8818H105.791C106.025 23.8818 106.146 23.999 106.151 24.2334L106.178 25.6309C106.189 25.877 106.069 26 105.817 26H98.9707C98.7305 26 98.6104 25.877 98.6104 25.6309C98.6104 25.3086 98.6133 24.9893 98.6191 24.6729C98.6309 24.3506 98.6396 24.0283 98.6455 23.7061C98.6631 22.3584 98.6719 21.0137 98.6719 19.6719C98.6719 18.7285 98.6631 17.791 98.6455 16.8594C98.6279 15.9219 98.6191 14.9844 98.6191 14.0469ZM114.36 26C114.155 26 114.035 25.8945 114 25.6836C113.982 25.5664 113.965 25.4492 113.947 25.332C113.936 25.209 113.924 25.0889 113.912 24.9717C113.912 24.9541 113.906 24.9248 113.895 24.8838C113.883 24.8369 113.862 24.8135 113.833 24.8135C113.81 24.8135 113.783 24.8281 113.754 24.8574C113.73 24.8809 113.713 24.9014 113.701 24.9189C113.314 25.3643 112.843 25.6836 112.286 25.877C111.735 26.0703 111.17 26.167 110.59 26.167C110.115 26.167 109.655 26.085 109.21 25.9209C108.771 25.751 108.407 25.4932 108.12 25.1475C107.839 24.8018 107.698 24.3623 107.698 23.8291C107.698 23.1494 107.701 22.4697 107.707 21.79C107.719 21.1045 107.725 20.4248 107.725 19.751V18.3887C107.725 18.1484 107.845 18.0283 108.085 18.0283H109.438C109.679 18.0283 109.799 18.1484 109.799 18.3887V19.7686C109.799 20.3193 109.796 20.873 109.79 21.4297C109.784 21.9863 109.784 22.543 109.79 23.0996C109.802 23.5625 109.951 23.8906 110.238 24.084C110.531 24.2715 110.889 24.3652 111.311 24.3652C111.838 24.3652 112.286 24.2246 112.655 23.9434C113.024 23.6621 113.306 23.3018 113.499 22.8623C113.698 22.417 113.798 21.9541 113.798 21.4736V18.3887C113.798 18.1484 113.918 18.0283 114.158 18.0283H115.503C115.743 18.0283 115.863 18.1484 115.863 18.3887C115.863 18.6406 115.86 18.8926 115.854 19.1445C115.854 19.3965 115.854 19.6484 115.854 19.9004C115.854 20.5449 115.857 21.1924 115.863 21.8428C115.875 22.4932 115.884 23.1406 115.89 23.7852C115.896 24.0898 115.901 24.3975 115.907 24.708C115.919 25.0127 115.925 25.3203 115.925 25.6309C115.925 25.877 115.805 26 115.564 26H114.36ZM119.265 26.2285C118.931 26.2285 118.582 26.167 118.219 26.0439C117.855 25.9209 117.554 25.7363 117.313 25.4902C117.243 25.4199 117.208 25.3438 117.208 25.2617C117.208 25.2266 117.226 25.1387 117.261 24.998C117.302 24.8516 117.346 24.7021 117.393 24.5498C117.439 24.3975 117.469 24.2979 117.48 24.251C117.504 24.1807 117.536 24.1133 117.577 24.0488C117.618 23.9785 117.683 23.9434 117.771 23.9434C117.882 23.9434 118.055 24.0166 118.289 24.1631C118.523 24.3096 118.793 24.3828 119.098 24.3828C119.631 24.3828 119.897 24.125 119.897 23.6094C119.897 23.2754 119.789 23.0439 119.572 22.915C119.361 22.7861 119.133 22.6572 118.887 22.5283C118.395 22.2646 118.02 21.9424 117.762 21.5615C117.504 21.1807 117.375 20.7061 117.375 20.1377C117.375 19.417 117.586 18.8545 118.008 18.4502C118.436 18.0459 119.004 17.8438 119.713 17.8438C119.801 17.8438 119.936 17.8555 120.117 17.8789C120.305 17.9023 120.498 17.9404 120.697 17.9932C120.896 18.04 121.066 18.1074 121.207 18.1953C121.348 18.2773 121.418 18.377 121.418 18.4941C121.418 18.6055 121.395 18.7285 121.348 18.8633C121.301 18.9922 121.263 19.1123 121.233 19.2236C121.21 19.2998 121.178 19.373 121.137 19.4434C121.096 19.5137 121.025 19.5488 120.926 19.5488C120.803 19.5488 120.671 19.5166 120.53 19.4521C120.39 19.3877 120.237 19.3555 120.073 19.3555C119.851 19.3555 119.654 19.4229 119.484 19.5576C119.314 19.6865 119.229 19.8711 119.229 20.1113C119.229 20.3867 119.312 20.6006 119.476 20.7529C119.646 20.9053 119.854 21.04 120.1 21.1572C120.346 21.2744 120.592 21.418 120.838 21.5879C121.084 21.7578 121.289 21.9951 121.453 22.2998C121.623 22.5986 121.708 23.0117 121.708 23.5391C121.708 24.2891 121.497 24.9248 121.075 25.4463C120.659 25.9678 120.056 26.2285 119.265 26.2285ZM123.914 17.9053C123.914 17.4014 123.911 16.9004 123.905 16.4023C123.899 15.8984 123.896 15.3975 123.896 14.8994C123.896 14.6592 124.017 14.5391 124.257 14.5391H125.637C125.877 14.5391 125.997 14.6592 125.997 14.8994C125.997 15.3975 125.994 15.8984 125.988 16.4023C125.988 16.9004 125.988 17.4014 125.988 17.9053C125.988 17.9756 126.026 18.0107 126.103 18.0107H127.482C127.723 18.0107 127.843 18.1309 127.843 18.3711C127.843 18.5527 127.84 18.7373 127.834 18.9248C127.834 19.1064 127.834 19.291 127.834 19.4785C127.834 19.7188 127.714 19.8389 127.474 19.8389H126.103C126.026 19.8389 125.988 19.874 125.988 19.9443C125.988 20.8936 125.991 21.8428 125.997 22.792C126.003 23.7412 126.006 24.6904 126.006 25.6396C126.006 25.8799 125.886 26 125.646 26H124.248C124.008 26 123.888 25.8799 123.888 25.6396C123.888 24.6904 123.891 23.7412 123.896 22.792C123.908 21.8428 123.914 20.8936 123.914 19.9443C123.914 19.8564 123.853 19.8154 123.729 19.8213C123.606 19.8213 123.466 19.8301 123.308 19.8477C123.149 19.8652 123.009 19.8535 122.886 19.8125C122.763 19.7715 122.701 19.6602 122.701 19.4785V18.3711C122.701 18.1309 122.821 18.0107 123.062 18.0107H123.8C123.876 18.0107 123.914 17.9756 123.914 17.9053Z" fill="#EE3771"/>
<defs>
<linearGradient id="paint0_linear_17_12" x1="20.0274" y1="8.35062" x2="20.0274" y2="32.2403" gradientUnits="userSpaceOnUse">
<stop stop-color="#FFA9E8"/>
<stop offset="1" stop-color="#F6132E"/>
</linearGradient>
</defs>
</svg>
