<svg xmlns="http://www.w3.org/2000/svg" width="166" height="40" fill="none"><path fill="url(#a)" d="M27.275 8.97c2.037 11.538-1.81 14.964-4.363 17.84C25.937 13.78 17.514 9.1 12.925 8.388c-2.683-.259-8.222.717-8.92 6.69-.873 7.466 5.817 9.6 10.471 11.732 3.724 1.707 6.27 4.331 7.079 5.43 6.884-3.103 13.962-7.854 14.544-14.932.465-5.662-4.784-8.306-7.466-8.92z"/><path fill="#EE3771" d="M24.634 2.692a.97.97 0 1 1 .434 1.89c-.692.159-1.426.885-2.087 2.058-.631 1.12-1.062 2.405-1.259 3.233a.97.97 0 0 1-1.886-.449c.228-.962.716-2.426 1.456-3.737C22 4.43 23.09 3.046 24.634 2.692"/><path fill="#EE3771" d="M21.26 9.225c2.293-1.974 5.954-2.587 9.202-1.698 3.632.994 6.89 3.891 7.496 9.022.609 5.158-2.31 9.67-5.991 13.132-3.702 3.48-8.352 6.075-11.662 7.433l-1.012.414-.29-1.054c-.15-.542-.341-.914-.653-1.274-.333-.385-.836-.792-1.68-1.348-.843-.556-1.954-1.216-3.474-2.128-1.512-.907-3.4-2.048-5.765-3.547C-2.76 21.715 1.984 7.163 12.495 7.163c2.663 0 4.492.265 5.94.725 1.144.363 2.016.838 2.825 1.337m8.69.173c-2.57-.704-5.275-.248-7.016.98 2.625 2.156 3.511 5.11 3.453 8.026-.064 3.225-1.274 6.464-2.576 8.774a.97.97 0 0 1-1.69-.952c1.2-2.127 2.271-5.051 2.327-7.861.055-2.725-.836-5.278-3.458-7.015l-.126-.082c-.998-.637-1.826-1.154-3.016-1.532-1.197-.38-2.812-.634-5.353-.634C4.033 9.102-.174 21.06 8.47 26.54a261 261 0 0 0 5.724 3.522c1.497.898 2.657 1.587 3.544 2.172.884.583 1.567 1.107 2.078 1.697.276.32.493.647.667.996 3.051-1.367 6.99-3.682 10.156-6.658 3.51-3.301 5.894-7.243 5.393-11.492-.505-4.275-3.141-6.573-6.082-7.378"/><ellipse cx="10.986" cy="12.46" fill="#fff" rx="1.261" ry="1.842"/><path fill="#EE3771" d="M52.107 14.047q0-.37.36-.37h3.947q.976 0 1.916.212a5.6 5.6 0 0 1 1.723.685q.772.466 1.23 1.248.457.774.457 1.908 0 .315-.053.65a4.5 4.5 0 0 1-.149.633q-.334 1.054-1.09 1.696a4.7 4.7 0 0 1-1.749.914 7.3 7.3 0 0 1-2.004.281h-2.223q-.106 0-.106.106l-.026 3.638q0 .352-.36.352h-1.521q-.36 0-.36-.37 0-.474.017-.948.017-.484.027-.958.026-2.004.026-4.026 0-1.89-.026-3.77a52 52 0 0 0-.027-.94 51 51 0 0 1-.009-.941m2.268 5.73h2.347q.51 0 1.046-.132a3.2 3.2 0 0 0 .993-.439 1.76 1.76 0 0 0 .65-.808q.052-.132.097-.3.044-.166.044-.307 0-.123-.044-.29a3 3 0 0 0-.088-.299 1.8 1.8 0 0 0-.633-.808 2.8 2.8 0 0 0-.95-.449q-.518-.15-1.019-.15h-2.46q.008.994.008 1.996.009.993.009 1.986m12.612 6.434q-1.283 0-2.24-.51a3.63 3.63 0 0 1-1.477-1.45q-.528-.94-.528-2.232 0-1.205.501-2.163a3.8 3.8 0 0 1 1.415-1.511q.914-.563 2.145-.563 1.52 0 2.382.853.87.852 1.177 2.267a.3.3 0 0 1 .01.088q0 .132-.071.202a.5.5 0 0 1-.167.106q-.3.141-.633.246-.335.105-.65.229-.924.343-1.855.676a41 41 0 0 0-1.846.695q-.07.035-.07.087 0 .026.018.062.351.633.966.94.615.308 1.319.308.554 0 1.028-.176.483-.175.95-.44.06-.034.122-.06a.3.3 0 0 1 .123-.027q.124 0 .185.079a.6.6 0 0 1 .114.167q.036.062.132.281.105.21.194.43.096.211.096.273a.24.24 0 0 1-.053.159.8.8 0 0 1-.123.114q-.623.43-1.52.65-.888.22-1.644.22m-2.206-4.28 1.776-.616 1.766-.615a2.6 2.6 0 0 0-.615-.844 1.35 1.35 0 0 0-.958-.36q-.667 0-1.107.36a2.14 2.14 0 0 0-.65.923q-.212.554-.212 1.152m10.116 4.236q-1.142 0-1.916-.545a3.4 3.4 0 0 1-1.168-1.441 4.9 4.9 0 0 1-.387-1.96v-.14a5.2 5.2 0 0 1 .457-2.084q.449-.976 1.292-1.573.843-.607 2.039-.607.739 0 1.371.282.642.271 1.195.747.061.06.106.061.105 0 .096-.22 0-.22.062-.439.07-.22.352-.22h1.239q.36 0 .36.36 0 .38-.009.756v.756q0 .967.01 1.943.016.975.026 1.942l.017.923q.018.457.018.923 0 .369-.36.369h-1.38q-.238 0-.308-.15a.8.8 0 0 1-.062-.369q.009-.21 0-.378a1 1 0 0 0-.008-.087q-.01-.062-.053-.062a.12.12 0 0 0-.07.026 5.552 5.552 0 0 1-1.38.879 3.8 3.8 0 0 1-1.539.308m.897-1.872q.624 0 1.151-.255a1.87 1.87 0 0 0 .914-1.002q.07-.15.07-.184 0-.308-.008-.616v-.606q0-.141.009-.308.008-.176-.01-.307a.7.7 0 0 0-.07-.185 4 4 0 0 0-.078-.176 1.94 1.94 0 0 0-.87-.826 2.7 2.7 0 0 0-1.178-.272q-.651 0-1.143.325a2.3 2.3 0 0 0-.773.861 2.5 2.5 0 0 0-.273 1.16q0 .633.29 1.178t.8.879q.519.334 1.169.334m11.145-.317q.123 0 .184.08a.7.7 0 0 1 .114.175q.035.071.14.343.107.272.194.536.097.264.097.317 0 .193-.308.334-.3.14-.72.228-.422.089-.8.123-.378.045-.536.044-1.855 0-2.892-1.098t-1.037-2.927q0-1.222.475-2.197a3.77 3.77 0 0 1 1.388-1.547q.906-.572 2.171-.572.492 0 1.064.115.57.105 1.002.342.087.045.14.106.062.053.062.158a.4.4 0 0 1-.044.176l-.404 1.02q-.098.245-.308.245a.5.5 0 0 1-.194-.043 5 5 0 0 0-.58-.159 2.5 2.5 0 0 0-.597-.07q-1.064 0-1.582.668-.51.668-.51 1.661 0 .958.483 1.617.492.65 1.52.65.335 0 .642-.078a6 6 0 0 0 .616-.194l.105-.035a.4.4 0 0 1 .115-.017M89.338 26q-.36 0-.36-.37 0-.482.008-.957.017-.483.027-.967a235 235 0 0 0 0-8.086 51 51 0 0 0-.027-.958 54 54 0 0 1-.008-.967q0-.369.36-.369h1.336q.21 0 .272.088.07.088.088.273.018.114.009.246a2 2 0 0 0 0 .255l.009 1.177q.008.879.008 1.767.01.88.01 1.766v.106q.008.08.06.079.045 0 .089-.044.044-.045.061-.07 1.064-1.152 2.69-1.152.694 0 1.292.282.597.272.966.8.379.527.378 1.265 0 1.363.027 2.733.035 1.372.035 2.734 0 .369-.36.369h-1.38q-.211 0-.281-.088a.6.6 0 0 1-.08-.272q-.035-.3-.026-.721.018-.43.009-.747-.009-.818-.009-1.626V20.91q0-.624-.352-.931-.35-.317-.949-.317-.738 0-1.213.466-.466.457-.694 1.125a4 4 0 0 0-.228 1.3q0 .774-.01 1.548l-.017 1.538q0 .36-.36.36zm13.781-11.953q0-.37.36-.37h7.234q.36 0 .36.37v.703q.009.36-.017.694-.027.352-.361.352h-5.229q-.106 0-.106.105v1.468q.009.73.009 1.46 0 .105.106.105h4.456q.36 0 .36.36v1.38q0 .36-.36.36h-4.456q-.106 0-.106.106v1.529q0 .756-.009 1.52-.008.36-.008.73.007.36-.009.72-.027.36-.361.361h-1.511q-.361 0-.361-.37 0-.482.009-.957.018-.483.027-.967.026-2.022.026-4.034 0-1.416-.026-2.813-.027-1.406-.027-2.812m12.472 12.12q-1.143 0-1.916-.545a3.4 3.4 0 0 1-1.169-1.441 4.9 4.9 0 0 1-.387-1.96v-.14a5.2 5.2 0 0 1 .457-2.084q.449-.976 1.292-1.573.844-.607 2.039-.607.738 0 1.371.282.641.271 1.196.747.061.06.105.061.105 0 .097-.22 0-.22.061-.439.07-.22.352-.22h1.239q.36 0 .36.36 0 .38-.008.756v.756q0 .967.008 1.943.018.975.027 1.942l.017.923q.018.457.018.923 0 .369-.36.369h-1.38q-.237 0-.308-.15a.8.8 0 0 1-.061-.369q.007-.21 0-.378a1 1 0 0 0-.009-.087q-.01-.062-.053-.062a.12.12 0 0 0-.07.026 5.54 5.54 0 0 1-1.38.879 3.8 3.8 0 0 1-1.538.308m.896-1.872q.624 0 1.152-.255a1.87 1.87 0 0 0 .914-1.002q.07-.15.07-.184 0-.308-.009-.616v-.606q0-.141.009-.308a1.7 1.7 0 0 0-.009-.307.7.7 0 0 0-.07-.185 4 4 0 0 0-.079-.176 1.94 1.94 0 0 0-.87-.826 2.7 2.7 0 0 0-1.178-.272q-.65 0-1.143.325a2.3 2.3 0 0 0-.773.861 2.5 2.5 0 0 0-.272 1.16q0 .633.29 1.178t.799.879q.52.334 1.169.334m7.55-6.267q.326 0 .36.317.027.176.044.351l.036.352a1 1 0 0 0 .017.105q.018.08.062.08.043 0 .079-.053a3.02 3.02 0 0 1 1.344-1.055 4.3 4.3 0 0 1 1.591-.299q.685 0 1.257.29.58.282.932.809.351.518.351 1.24 0 1.36.027 2.733.035 1.37.035 2.733 0 .369-.36.369h-1.38q-.334 0-.361-.36-.026-.378-.017-.756.009-.387 0-.765-.009-.809-.009-1.608v-1.6q0-.624-.36-.931-.361-.317-.958-.317-.748 0-1.231.457a2.9 2.9 0 0 0-.712 1.125 4 4 0 0 0-.228 1.31q0 .772-.009 1.547l-.018 1.538q0 .36-.36.36h-1.38q-.36 0-.36-.37 0-.49.009-.975.017-.492.026-.975.026-2.056.026-4.114V18.39q0-.36.361-.36zm8.754-.123q0-.756-.009-1.503-.009-.756-.009-1.503 0-.36.361-.36h1.38q.36 0 .36.36 0 .749-.009 1.503v1.503q0 .105.114.106h1.38q.361 0 .361.36 0 .272-.009.554v.553q0 .36-.36.36h-1.372q-.114 0-.114.106 0 1.425.009 2.848.009 1.424.009 2.848 0 .36-.361.36h-1.397q-.36 0-.36-.36 0-1.425.008-2.848.018-1.424.018-2.848 0-.132-.185-.123-.184 0-.421.027a1 1 0 0 1-.422-.035q-.185-.062-.185-.334V18.37q0-.36.36-.36h.739q.114 0 .114-.106m8.358 8.262q-1.142 0-1.916-.545a3.4 3.4 0 0 1-1.169-1.441 4.95 4.95 0 0 1-.386-1.96v-.14a5.2 5.2 0 0 1 .457-2.084 3.86 3.86 0 0 1 1.292-1.573q.843-.607 2.039-.607.738 0 1.371.282.642.271 1.195.747.061.06.106.061.105 0 .096-.22 0-.22.062-.439.07-.22.351-.22h1.24q.36 0 .36.36 0 .38-.009.756v.756q0 .967.009 1.943.018.975.026 1.942l.018.923q.018.457.018.923 0 .369-.361.369h-1.38q-.237 0-.307-.15a.8.8 0 0 1-.062-.369q.009-.21 0-.378a1 1 0 0 0-.009-.087q-.008-.062-.052-.062a.12.12 0 0 0-.071.026 5.58 5.58 0 0 1-1.379.879 3.8 3.8 0 0 1-1.539.308m.897-1.872q.624 0 1.151-.255a1.86 1.86 0 0 0 .914-1.002.7.7 0 0 0 .071-.184q0-.308-.009-.616v-.606q0-.141.009-.308a1.7 1.7 0 0 0-.009-.307.7.7 0 0 0-.07-.185 4 4 0 0 0-.08-.176 1.94 1.94 0 0 0-.87-.826 2.7 2.7 0 0 0-1.177-.272q-.651 0-1.143.325a2.3 2.3 0 0 0-.773.861 2.5 2.5 0 0 0-.273 1.16q0 .633.29 1.178t.8.879q.519.334 1.169.334m11.144-.317q.123 0 .185.08a.7.7 0 0 1 .114.175q.036.071.141.343.106.272.193.536.097.264.097.317 0 .193-.308.334-.299.14-.72.228-.423.089-.8.123-.378.045-.536.044-1.855 0-2.892-1.098t-1.037-2.927q0-1.222.475-2.197a3.77 3.77 0 0 1 1.388-1.547q.906-.572 2.171-.572.492 0 1.064.115.57.105 1.002.342.087.045.14.106.062.053.062.158a.4.4 0 0 1-.044.176l-.405 1.02q-.096.245-.307.245a.5.5 0 0 1-.194-.043 5 5 0 0 0-.58-.159 2.5 2.5 0 0 0-.597-.07q-1.064 0-1.582.668-.51.668-.51 1.661 0 .958.483 1.617.492.65 1.521.65.334 0 .641-.078a6 6 0 0 0 .616-.194l.105-.035a.4.4 0 0 1 .114-.017m3.472 4.94a.9.9 0 0 1-.264-.044q-.14-.045-.14-.21 0-.072.017-.133l.053-.123q.334-.764.686-1.52.36-.756.694-1.52v-.08l-1.459-3.375q-.73-1.687-1.45-3.384a.6.6 0 0 1-.062-.246q0-.166.132-.21a.9.9 0 0 1 .264-.045h1.538q.14 0 .202.062.07.052.132.167.149.3.264.624l.237.633q.307.764.598 1.538.299.764.624 1.52a1 1 0 0 1 .043.08q.027.043.062.043t.062-.044a44.06 44.06 0 0 0 .711-1.6q.326-.78.66-1.546.131-.307.255-.633.13-.334.29-.633.123-.21.334-.21h1.089q.132 0 .264.043.132.045.132.211 0 .105-.062.246a202 202 0 0 1-1.309 3.12q-.66 1.556-1.31 3.12-.272.66-.553 1.31-.273.66-.554 1.31-.141.324-.281.659-.132.335-.282.65-.105.22-.334.22z"/><defs><linearGradient id="a" x1="20.027" x2="20.027" y1="8.351" y2="32.24" gradientUnits="userSpaceOnUse"><stop stop-color="#FFA9E8"/><stop offset="1" stop-color="#F6132E"/></linearGradient></defs></svg>